<svg width="130" height="35" viewBox="0 0 130 35" fill="none" xmlns="http://www.w3.org/2000/svg">
<path d="M12.384 23.488H5.184L3.552 28.072H0.96L7.872 10.6H10.032L16.68 28.072H14.016L12.384 23.488ZM9.024 13L5.76 21.376H11.736L9.024 13ZM23.9604 28.36C22.2644 28.36 20.9444 27.728 20.0004 26.464C19.0724 25.184 18.6084 23.544 18.6084 21.544C18.6084 19.544 19.0724 17.984 20.0004 16.864C20.9444 15.728 22.2644 15.16 23.9604 15.16C25.3844 15.16 26.6084 15.768 27.6324 16.984V10.24H29.7684V28.072H27.6324V26.44C26.8804 27.72 25.6564 28.36 23.9604 28.36ZM27.6324 20.824C27.5044 18.488 26.3604 17.32 24.2004 17.32C23.1764 17.32 22.3684 17.688 21.7764 18.424C21.1684 19.176 20.8484 20.28 20.8164 21.736C20.8324 23.064 21.0964 24.136 21.6084 24.952C22.1364 25.768 22.9684 26.176 24.1044 26.176C25.2564 26.176 26.1044 25.872 26.6484 25.264C27.1924 24.656 27.5204 23.728 27.6324 22.48V20.824ZM41.7129 16.888C42.8809 18.152 43.4649 19.736 43.4649 21.64C43.4649 23.544 42.8729 25.16 41.6889 26.488C40.5209 27.816 39.0809 28.48 37.3689 28.48C35.6569 28.48 34.2409 27.816 33.1209 26.488C32.0009 25.16 31.4409 23.544 31.4409 21.64C31.4409 19.736 32.0009 18.152 33.1209 16.888C34.2409 15.624 35.6649 14.992 37.3929 14.992C39.1049 14.992 40.5449 15.624 41.7129 16.888ZM34.6329 18.208C33.9769 19.152 33.6489 20.288 33.6489 21.616C33.6489 22.928 33.9689 24.096 34.6089 25.12C35.2649 26.16 36.1609 26.68 37.2969 26.68C38.4329 26.68 39.3449 26.168 40.0329 25.144C40.7049 24.104 41.0409 22.92 41.0409 21.592C41.0409 20.264 40.7049 19.136 40.0329 18.208C39.3609 17.264 38.4569 16.792 37.3209 16.792C36.1849 16.792 35.2889 17.264 34.6329 18.208ZM47.8579 15.256V16.96C48.8499 15.712 49.8579 15.088 50.8819 15.088C52.5459 15.088 53.8339 15.68 54.7459 16.864C55.6579 18.064 56.1139 19.664 56.1139 21.664C56.1139 23.68 55.6499 25.296 54.7219 26.512C53.7779 27.744 52.4979 28.36 50.8819 28.36C49.6019 28.36 48.5939 27.712 47.8579 26.416V32.8H45.6019V15.256H47.8579ZM53.1379 18.352C52.6259 17.584 51.8259 17.2 50.7379 17.2C49.0739 17.2 48.1139 18.544 47.8579 21.232V22.696C47.9859 25.048 48.9459 26.224 50.7379 26.224C51.7459 26.224 52.5139 25.816 53.0419 25C53.5859 24.168 53.8739 23.072 53.9059 21.712C53.8899 20.256 53.6339 19.136 53.1379 18.352ZM65.3927 25.792L65.5367 26.656C65.1687 27.664 64.1927 28.168 62.6087 28.168C60.4007 28.168 59.2967 27.04 59.2967 24.784V17.44H57.5447V15.688H59.2967V11.968H61.4807V15.688H65.0567V17.44H61.4807V24.448C61.4807 25.76 62.1447 26.416 63.4727 26.416C64.3367 26.416 64.9767 26.208 65.3927 25.792ZM76.0856 17.248C76.8216 15.808 78.0216 15.088 79.6856 15.088C81.3336 15.088 82.4936 15.552 83.1656 16.48C83.8376 17.424 84.1736 18.568 84.1736 19.912V28.072H81.9416V20.392C81.9416 19.464 81.8216 18.688 81.5816 18.064C81.3096 17.456 80.7416 17.152 79.8776 17.152C78.9976 17.152 78.2616 17.448 77.6696 18.04C77.0936 18.632 76.8056 19.28 76.8056 19.984V28.072H74.5736V19.912C74.5736 19.272 74.3896 18.656 74.0216 18.064C73.6696 17.456 73.0456 17.152 72.1496 17.152C71.2696 17.152 70.6056 17.448 70.1576 18.04C69.6776 18.632 69.4376 19.28 69.4376 19.984V28.072H67.2056V15.136H69.4376V17.416C69.9656 15.864 70.8056 15.088 71.9576 15.088C73.9416 15.088 75.3176 15.808 76.0856 17.248ZM97.3772 22.6H88.7612C88.8892 23.928 89.2652 24.864 89.8892 25.408C90.5292 25.968 91.3852 26.248 92.4572 26.248C94.3612 26.248 95.8812 25.744 97.0172 24.736V27.04C95.7052 27.872 94.1772 28.288 92.4332 28.288C90.6892 28.288 89.2812 27.68 88.2092 26.464C87.1212 25.232 86.5772 23.68 86.5772 21.808C86.5772 19.952 87.1292 18.4 88.2332 17.152C89.3372 15.904 90.7532 15.28 92.4812 15.28C93.4252 15.28 94.2412 15.464 94.9292 15.832C96.5612 16.808 97.3772 19.064 97.3772 22.6ZM92.4572 17.416H92.4092C90.2652 17.416 89.0492 18.512 88.7612 20.704H95.5052C95.4252 19.568 95.1612 18.736 94.7132 18.208C94.2492 17.68 93.4972 17.416 92.4572 17.416Z" fill="#304057"/>
<path d="M109.661 10.7362C109.697 10.0961 109.794 9.5278 109.935 9.02449C110.858 5.74101 115.919 6.30342 115.245 9.647C115.168 10.0258 115.047 10.3949 114.876 10.7362C113.833 12.822 109.401 15.4294 109.661 10.7362Z" fill="#304057" stroke="#304057"/>
<path d="M117.903 10.2147C117.938 9.57463 118.035 9.00631 118.177 8.50301C119.1 5.21953 124.16 5.78194 123.486 9.12551C123.41 9.5043 123.288 9.87345 123.118 10.2147C122.075 12.3006 117.642 14.9079 117.903 10.2147Z" fill="#304057" stroke="#304057"/>
<path d="M122.42 14.1255C122.789 13.601 123.171 13.1697 123.558 12.8173C126.077 10.5182 130.075 13.6706 127.736 16.1525C127.471 16.4337 127.172 16.6827 126.847 16.8821C124.859 18.1014 119.718 17.9716 122.42 14.1255Z" fill="#304057" stroke="#304057"/>
<path d="M122.01 21.0813C122.502 20.6706 122.984 20.3535 123.448 20.1135C126.479 18.5482 129.52 22.6314 126.616 24.42C126.287 24.6226 125.934 24.7855 125.568 24.8936C123.332 25.5543 118.401 24.0928 122.01 21.0813Z" fill="#304057" stroke="#304057"/>
<path d="M107.723 16.4723C106.956 16.7921 106.495 17.2018 106.246 17.6412C105.28 19.3453 107.724 21.2806 109.507 22.0921C112.209 23.3219 112.16 27.0508 114.915 28.1574C116.05 28.613 117.243 28.328 117.631 27.1624C120.238 21.1655 119.195 18.0367 116.849 16.2116C114.502 14.3864 110.852 15.1686 107.723 16.4723Z" fill="#304057" stroke="#304057"/>
</svg>
